<?xml version="1.0" encoding="UTF-8" standalone="no"?>
<!DOCTYPE svg PUBLIC "-//W3C//DTD SVG 1.1//EN" "http://www.w3.org/Graphics/SVG/1.1/DTD/svg11.dtd">
<svg version="1.1" xmlns="http://www.w3.org/2000/svg" xmlns:xlink="http://www.w3.org/1999/xlink" preserveAspectRatio="xMidYMid meet" viewBox="0 0 1024 1024" width="1024" height="1024"><defs><path d="M293.19 350.97C153.16 350.97 39.64 464.49 39.64 604.51C39.64 642.11 47.89 677.75 62.57 709.84C56.61 720.98 8.93 810.09 2.97 821.22C-6.1 838.16 6.93 857.16 24.26 857.16C26.83 857.16 29.5 856.74 32.21 855.83C44.24 851.79 140.48 819.48 152.5 815.44C192.76 842.35 241.14 858.06 293.19 858.06C433.22 858.06 546.74 744.54 546.74 604.51C546.74 464.49 433.22 350.97 293.19 350.97M990.34 856.81C986.77 856.81 983.06 856.23 979.3 854.97C962.62 849.36 829.1 804.54 812.41 798.94C756.55 836.28 689.41 858.06 617.17 858.06C578.04 858.06 540.4 851.66 505.23 839.87C509.3 836.19 513.29 832.42 517.2 828.52C577.03 768.68 609.98 689.13 609.98 604.51C609.98 445.34 491.96 313.26 338.84 291.06C403.19 207.95 503.93 154.43 617.17 154.43C811.47 154.43 968.98 311.94 968.98 506.24C968.98 558.43 957.61 607.95 937.23 652.49C945.49 667.93 1011.62 791.5 1019.88 806.95C1032.46 830.45 1014.39 856.81 990.34 856.81" id="gifRg8TcP"></path></defs><g><g><g><use xlink:href="#gifRg8TcP" opacity="1" fill="#8780e4" fill-opacity="1"></use><g><use xlink:href="#gifRg8TcP" opacity="1" fill-opacity="0" stroke="#000000" stroke-width="1" stroke-opacity="0"></use></g></g></g></g></svg>