<?xml version="1.0" standalone="no"?>
<svg xmlns="http://www.w3.org/2000/svg" viewBox="0 0 125 73" width="125" height="73"><g fill="#6a8bff" color="#6a8bff" transform="translate(40.292 0) scale(0.44) "><svg width="100.0" height="100.0" x="0.0" y="0.0" viewBox="0 0 100 100"><title></title><desc></desc><g stroke="none" stroke-width="1" fill="none" fill-rule="evenodd"><path d="M30.7686193,36.2738704 C18.4614079,36.2738704 8.48431551,46.2509628 8.48431551,58.5581743 C8.48431551,61.8621003 9.20902527,64.9950977 10.4993283,67.8150733 L5.26064254,77.6049085 C4.46401768,79.093586 5.60910078,80.7629198 7.13182506,80.7629198 C7.35834029,80.7629198 7.59284608,80.7260937 7.83082603,80.646188 L18.4037368,77.0969863 C21.9418213,79.4614995 26.1938456,80.8424781 30.7686193,80.8424781 C43.0758308,80.8424781 53.0529232,70.8653857 53.0529232,58.5581743 C53.0529232,46.2509628 43.0758308,36.2738704 30.7686193,36.2738704 M92.0416826,80.7323472 C91.7276186,80.7323472 91.4017424,80.6812771 91.0716972,80.5704514 L76.4034467,75.6461771 C71.4934165,78.9278686 65.5925559,80.8424781 59.2435287,80.8424781 C55.8041104,80.8424781 52.4960153,80.2800116 49.4054027,79.2433223 C49.7625463,78.9205728 50.1137839,78.5887906 50.4566835,78.245891 C55.7155193,72.9870551 58.611579,65.9953083 58.611579,58.5581743 C58.611579,44.5684272 48.2387798,32.9598693 34.7809266,31.0084337 C40.4368589,23.7036651 49.290408,19 59.2431813,19 C76.3207617,19 90.164594,32.8438324 90.164594,49.9210653 C90.164594,54.5076512 89.1650782,58.8600787 87.373454,62.7744147 L94.6382697,76.3500419 C95.7437474,78.4157774 94.1550141,80.7323472 92.0416826,80.7323472" fill="currentColor"></path></g></svg></g><path fill="#5e24c3" fill-rule="nonzero" d="M21.77 1.01L23.52 1.01L23.52 11.21Q23.52 14.54 21.88 16.25Q20.23 17.95 17.23 17.95L17.23 17.95Q15.24 17.95 13.84 17.18Q12.43 16.42 11.76 15L11.76 15Q11.06 16.44 9.67 17.20Q8.28 17.95 6.31 17.95L6.31 17.95Q3.29 17.95 1.64 16.25Q0 14.54 0 11.21L0 11.21L0 1.01L1.78 1.01L1.78 11.14Q1.78 16.37 6.31 16.37L6.31 16.37Q8.50 16.37 9.70 15.08Q10.90 13.80 10.90 11.14L10.90 11.14L10.90 1.01L12.65 1.01L12.65 11.14Q12.65 13.82 13.84 15.10Q15.02 16.37 17.23 16.37L17.23 16.37Q19.42 16.37 20.59 15.08Q21.77 13.80 21.77 11.14L21.77 11.14L21.77 1.01ZM34.92 5.09Q37.30 5.09 38.70 6.47Q40.10 7.85 40.10 10.49L40.10 10.49L40.10 17.81L38.40 17.81L38.40 10.66Q38.40 8.69 37.42 7.66Q36.43 6.62 34.61 6.62L34.61 6.62Q32.57 6.62 31.38 7.84Q30.19 9.05 30.19 11.18L30.19 11.18L30.19 17.81L28.49 17.81L28.49 0L30.19 0L30.19 7.39Q30.89 6.29 32.11 5.69Q33.34 5.09 34.92 5.09L34.92 5.09ZM56.90 1.01L58.68 1.01L58.68 12.94Q58.68 16.54 56.81 18.43Q54.94 20.33 51.62 20.33L51.62 20.33Q49.56 20.33 47.92 19.67Q46.27 19.01 45.17 17.76L45.17 17.76L45.98 16.39Q48.12 18.74 51.62 18.74L51.62 18.74Q54.22 18.74 55.56 17.30Q56.90 15.86 56.90 12.98L56.90 12.98L56.90 10.73Q55.27 13.58 51.46 13.58L51.46 13.58Q48.34 13.58 46.58 11.80Q44.83 10.01 44.83 6.65L44.83 6.65L44.83 1.01L46.61 1.01L46.61 6.58Q46.61 9.24 47.93 10.62Q49.25 12 51.62 12L51.62 12Q54.12 12 55.51 10.55Q56.90 9.10 56.90 6.19L56.90 6.19L56.90 1.01ZM81.98 0.86Q84.86 0.86 86.47 2.52Q88.08 4.18 88.08 7.32L88.08 7.32L88.08 17.81L86.33 17.81L86.33 7.37Q86.33 4.92 85.09 3.68Q83.86 2.45 81.72 2.45L81.72 2.45Q79.46 2.45 78.19 3.76Q76.92 5.06 76.92 7.75L76.92 7.75L76.92 17.81L75.17 17.81L75.17 7.37Q75.17 4.92 73.97 3.68Q72.77 2.45 70.63 2.45L70.63 2.45Q68.35 2.45 67.07 3.76Q65.78 5.06 65.78 7.75L65.78 7.75L65.78 17.81L64.01 17.81L64.01 1.01L65.71 1.01L65.71 3.82Q66.41 2.38 67.78 1.62Q69.14 0.86 71.02 0.86L71.02 0.86Q72.98 0.86 74.39 1.69Q75.79 2.52 76.42 4.01L76.42 4.01Q77.14 2.47 78.59 1.67Q80.04 0.86 81.98 0.86L81.98 0.86ZM100.73 17.95Q98.23 17.95 96.23 16.85Q94.22 15.74 93.08 13.79Q91.94 11.83 91.94 9.41L91.94 9.41Q91.94 6.98 93.08 5.03Q94.22 3.07 96.24 1.97Q98.26 0.86 100.75 0.86L100.75 0.86Q102.62 0.86 104.21 1.49Q105.79 2.11 106.90 3.31L106.90 3.31L105.77 4.44Q103.80 2.45 100.80 2.45L100.80 2.45Q98.81 2.45 97.18 3.36Q95.54 4.27 94.62 5.86Q93.70 7.44 93.70 9.41L93.70 9.41Q93.70 11.38 94.62 12.96Q95.54 14.54 97.18 15.46Q98.81 16.37 100.80 16.37L100.80 16.37Q103.82 16.37 105.77 14.35L105.77 14.35L106.90 15.48Q105.79 16.68 104.20 17.32Q102.60 17.95 100.73 17.95L100.73 17.95ZM117.55 0.86Q120.82 0.86 122.70 2.77Q124.58 4.68 124.58 8.28L124.58 8.28L124.58 17.81L122.83 17.81L122.83 12.86L112.27 12.86L112.27 17.81L110.54 17.81L110.54 8.28Q110.54 4.68 112.43 2.77Q114.31 0.86 117.55 0.86L117.55 0.86ZM112.27 11.33L122.83 11.33L122.83 8.11Q122.83 5.30 121.44 3.88Q120.05 2.45 117.55 2.45L117.55 2.45Q115.06 2.45 113.66 3.88Q112.27 5.30 112.27 8.11L112.27 8.11L112.27 11.33Z" transform="translate(0, 52)"></path></svg>