<?xml version="1.0" encoding="UTF-8" standalone="no"?>
<!DOCTYPE svg PUBLIC "-//W3C//DTD SVG 1.1//EN" "http://www.w3.org/Graphics/SVG/1.1/DTD/svg11.dtd">
<svg version="1.1" xmlns="http://www.w3.org/2000/svg" xmlns:xlink="http://www.w3.org/1999/xlink" preserveAspectRatio="xMidYMid meet" viewBox="0 0 691 87" width="691" height="87"><defs><path d="M36.36 24.3C19 24.3 4.92 38.34 4.92 55.65C4.92 60.3 5.94 64.71 7.76 68.67C7.02 70.05 1.11 81.07 0.37 82.45C-0.76 84.54 0.86 86.89 3.01 86.89C3.33 86.89 3.66 86.84 3.99 86.72C5.49 86.22 17.42 82.23 18.91 81.73C23.91 85.06 29.91 87 36.36 87C53.73 87 67.81 72.96 67.81 55.65C67.81 38.34 53.73 24.3 36.36 24.3M122.83 86.85C122.38 86.85 121.92 86.77 121.46 86.62C119.39 85.92 102.83 80.38 100.76 79.69C93.83 84.31 85.5 87 76.54 87C71.69 87 67.02 86.21 62.66 84.75C63.16 84.3 63.66 83.83 64.14 83.35C71.57 75.95 75.65 66.11 75.65 55.65C75.65 35.97 61.01 19.64 42.02 16.89C50.01 6.62 62.5 0 76.54 0C100.64 0 120.18 19.48 120.18 43.5C120.18 49.95 118.77 56.08 116.24 61.58C117.26 63.49 125.46 78.77 126.49 80.68C128.05 83.59 125.81 86.85 122.83 86.85" id="ab01EFskT"></path><path d="M263.49 4.32C263.49 30.51 263.49 45.06 263.49 47.97C263.49 62.22 257.25 67.38 256.56 69.54C251.9 74.39 245.35 76.82 236.89 76.82C236.89 76.82 236.89 76.82 236.89 76.82C228.47 76.82 223.98 73.85 222.55 73.52C218.57 71.35 215.64 68.24 213.75 64.19C213.75 64.19 213.75 64.19 213.75 64.19C210.79 70.35 205.79 72.66 204.91 73.61C200.99 75.75 196.25 76.82 190.69 76.82C190.69 76.82 190.69 76.82 190.69 76.82C177.92 76.82 172.91 70.27 170.94 69.54C166.31 64.66 164 57.47 164 47.97L164 47.97L164 4.32L171.53 4.32C171.53 30.33 171.53 44.78 171.53 47.67C171.53 62.59 177.92 70.05 190.69 70.05C190.69 70.05 190.69 70.05 190.69 70.05C199.96 70.05 203.6 65.09 205.03 64.53C208.42 60.88 210.11 55.26 210.11 47.67L210.11 47.67L210.11 4.32L217.51 4.32C217.51 30.33 217.51 44.78 217.51 47.67C217.51 59.14 222.04 62.92 222.55 64.62C225.87 68.24 230.65 70.05 236.89 70.05C236.89 70.05 236.89 70.05 236.89 70.05C246.15 70.05 249.68 65.09 251.1 64.53C254.43 60.88 256.09 55.26 256.09 47.67L256.09 47.67L256.09 4.32L263.49 4.32ZM327.71 27.69C331.66 31.62 333.63 37.36 333.63 44.89L333.63 44.89L333.63 76.22L326.44 76.22C326.44 57.86 326.44 47.66 326.44 45.62C326.44 37.19 322.71 34.06 322.29 32.78C319.5 29.81 315.54 28.33 310.41 28.33C310.41 28.33 310.41 28.33 310.41 28.33C301.78 28.33 298.11 33.03 296.74 33.55C293.39 37 291.71 41.77 291.71 47.84L291.71 47.84L291.71 76.22L284.52 76.22L284.52 0L291.71 0C291.71 18.97 291.71 29.52 291.71 31.62C294.67 26.92 299.02 25.08 299.83 24.35C303.3 22.64 307.26 21.78 311.72 21.78L311.72 21.78C321.31 25.33 326.64 27.29 327.71 27.69ZM412.23 4.32C412.23 34.95 412.23 51.97 412.23 55.38C412.23 70.78 405.11 76.52 404.32 78.87C399.04 84.29 391.73 87 382.36 87C382.36 87 382.36 87 382.36 87C373.65 87 368.28 84.46 366.71 84.18C362.06 82.29 358.18 79.57 355.08 76L355.08 76C357.13 72.48 358.28 70.53 358.5 70.14C364.54 76.84 372.49 80.2 382.36 80.2C382.36 80.2 382.36 80.2 382.36 80.2C393.36 80.2 397.36 74.65 399.03 74.03C402.81 69.93 404.7 63.76 404.7 55.55L404.7 55.55C404.7 49.77 404.7 46.56 404.7 45.92C400.1 54.05 392.43 58.11 381.69 58.11C381.69 58.11 381.69 58.11 381.69 58.11C368.49 58.11 363.11 51.26 361.04 50.5C356.11 45.39 353.64 38.04 353.64 28.46L353.64 28.46L353.64 4.32L361.17 4.32C361.17 18.62 361.17 26.57 361.17 28.16C361.17 39.54 366.19 43.72 366.75 45.45C370.48 49.38 375.68 51.35 382.36 51.35C382.36 51.35 382.36 51.35 382.36 51.35C392.94 51.35 397.17 45.77 398.82 45.15C402.74 41.01 404.7 34.79 404.7 26.49L404.7 26.49L404.7 4.32L412.23 4.32ZM529.79 10.78C534.33 15.52 536.6 22.37 536.6 31.33L536.6 31.33L536.6 76.22L529.19 76.22C529.19 49.41 529.19 34.52 529.19 31.54C529.19 21.05 524.47 17.33 523.95 15.75C520.48 12.24 515.73 10.48 509.69 10.48C509.69 10.48 509.69 10.48 509.69 10.48C500.13 10.48 496.25 15.53 494.76 16.09C491.18 19.8 489.39 25.49 489.39 33.17L489.39 33.17L489.39 76.22L481.98 76.22C481.98 49.41 481.98 34.52 481.98 31.54C481.98 21.05 477.42 17.33 476.91 15.75C473.52 12.24 468.81 10.48 462.78 10.48C462.78 10.48 462.78 10.48 462.78 10.48C453.13 10.48 449.23 15.53 447.72 16.09C444.08 19.8 442.26 25.49 442.26 33.17L442.26 33.17L442.26 76.22L434.77 76.22L434.77 4.32L441.97 4.32C441.97 11.54 441.97 15.55 441.97 16.35C444.93 10.18 449.85 7.87 450.72 6.93C454.56 4.76 459.13 3.68 464.43 3.68C464.43 3.68 464.43 3.68 464.43 3.68C472.72 3.68 477.26 6.88 478.68 7.23C482.63 9.6 485.5 12.91 487.27 17.16C487.27 17.16 487.27 17.16 487.27 17.16C490.32 10.57 495.53 8.15 496.45 7.15C500.54 4.84 505.32 3.68 510.79 3.68L510.79 3.68C522.19 7.94 528.52 10.31 529.79 10.78ZM571.07 72.11C562.57 67.36 559.08 60.32 557.75 59.01C554.53 53.42 552.92 47.17 552.92 40.27C552.92 40.27 552.92 40.27 552.92 40.27C552.92 29.87 557.26 23.4 557.75 21.53C562.57 13.14 569.78 9.74 571.11 8.43C576.81 5.26 583.17 3.68 590.19 3.68C590.19 3.68 590.19 3.68 590.19 3.68C598.1 3.68 603.37 6.11 604.83 6.38C609.29 8.15 613.08 10.74 616.21 14.16L616.21 14.16C613.34 17.07 611.75 18.68 611.43 19C605.87 13.32 598.86 10.48 590.4 10.48C590.4 10.48 590.4 10.48 590.4 10.48C581.99 10.48 576.62 13.99 575.09 14.38C568.15 18.27 565.34 24.01 564.26 25.08C561.67 29.58 560.37 34.65 560.37 40.27C560.37 40.27 560.37 40.27 560.37 40.27C560.37 48.7 563.87 53.94 564.26 55.46C568.15 62.22 574.01 65.09 575.09 66.16C579.69 68.76 584.79 70.05 590.4 70.05C590.4 70.05 590.4 70.05 590.4 70.05C598.92 70.05 605.93 67.17 611.43 61.41L611.43 61.41C614.3 64.31 615.89 65.92 616.21 66.24C611.51 71.38 605.93 73.33 604.79 74.12C600.27 75.92 595.38 76.82 590.11 76.82L590.11 76.82C578.69 73.99 572.34 72.42 571.07 72.11ZM683.05 11.85C688.35 17.3 691 25.16 691 35.43L691 35.43L691 76.22L683.6 76.22L683.6 55.03L638.92 55.03L638.92 76.22L631.61 76.22C631.61 51.75 631.61 38.15 631.61 35.43C631.61 20.03 638.8 14.21 639.6 11.85C644.9 6.4 652.12 3.68 661.26 3.68L661.26 3.68C674.33 8.58 681.59 11.31 683.05 11.85ZM683.6 48.49C683.6 40.22 683.6 35.62 683.6 34.71C683.6 22.68 678.3 18.41 677.72 16.6C673.8 12.52 668.31 10.48 661.26 10.48C661.26 10.48 661.26 10.48 661.26 10.48C650.73 10.48 646.45 15.99 644.8 16.6C640.88 20.66 638.92 26.69 638.92 34.71L638.92 34.71L638.92 48.49L683.6 48.49Z" id="aWNteOL4Y"></path></defs><g><g><g><use xlink:href="#ab01EFskT" opacity="1" fill="#8780e4" fill-opacity="1"></use><g><use xlink:href="#ab01EFskT" opacity="1" fill-opacity="0" stroke="#000000" stroke-width="1" stroke-opacity="0"></use></g></g><g><use xlink:href="#aWNteOL4Y" opacity="1" fill="#ffffff" fill-opacity="1"></use><g><use xlink:href="#aWNteOL4Y" opacity="1" fill-opacity="0" stroke="#000000" stroke-width="1" stroke-opacity="0"></use></g></g></g></g></svg>